<svg width="30" height="27" viewBox="0 0 30 27" fill="none" xmlns="http://www.w3.org/2000/svg">
<path d="M10.0551 13.965C9.91039 13.6762 9.91039 13.336 10.0551 13.0473L11.35 10.447C11.4929 10.1583 11.4929 9.81805 11.35 9.53117L7.51652 1.83868C7.14105 1.0847 6.06776 1.0847 5.69229 1.83868L0.107835 13.0491C-0.0368592 13.3379 -0.0350276 13.6781 0.107835 13.9668L5.69229 25.1644C6.06776 25.9184 7.14105 25.9184 7.51652 25.1644L11.3445 17.4701C11.4874 17.1813 11.4874 16.8411 11.3445 16.5543L10.0551 13.965Z" fill="url(#paint0_linear)"/>
<path d="M11.6083 0H22.7699C23.1564 0 23.5099 0.218843 23.682 0.566411L29.8929 13.0421C30.0358 13.3308 30.0358 13.6692 29.8929 13.9579L23.682 26.4207C23.5099 26.7664 23.1564 26.9871 22.7718 26.9871L11.601 27C10.8428 27 10.3482 26.1982 10.6871 25.5178L16.451 13.9597C16.5957 13.671 16.5957 13.3308 16.451 13.0439L10.6962 1.48406C10.3574 0.801799 10.8501 0 11.6083 0Z" fill="url(#paint1_linear)"/>
<defs>
<linearGradient id="paint0_linear" x1="5.72858" y1="1.27319" x2="5.72858" y2="25.7299" gradientUnits="userSpaceOnUse">
<stop stop-color="#1A8EF9"/>
<stop offset="1" stop-color="#3AB8FF"/>
</linearGradient>
<linearGradient id="paint1_linear" x1="20.2892" y1="0" x2="20.2892" y2="27" gradientUnits="userSpaceOnUse">
<stop stop-color="#1A8EF9"/>
<stop offset="1" stop-color="#3AB8FF"/>
</linearGradient>
</defs>
</svg>
